<?xml version="1.0" encoding="UTF-8" standalone="no"?>
<!-- Created with Inkscape (http://www.inkscape.org/) -->

<svg
   width="210mm"
   height="128mm"
   viewBox="0 0 210 128"
   version="1.1"
   id="svg1"
   inkscape:version="1.4.4 (dcaf3e7, 2026-05-05)"
   sodipodi:docname="logo.svg"
   xmlns:inkscape="http://www.inkscape.org/namespaces/inkscape"
   xmlns:sodipodi="http://sodipodi.sourceforge.net/DTD/sodipodi-0.dtd"
   xmlns:xlink="http://www.w3.org/1999/xlink"
   xmlns="http://www.w3.org/2000/svg"
   xmlns:svg="http://www.w3.org/2000/svg">
  <sodipodi:namedview
     id="namedview1"
     pagecolor="#505050"
     bordercolor="#ffffff"
     borderopacity="1"
     inkscape:showpageshadow="0"
     inkscape:pageopacity="0"
     inkscape:pagecheckerboard="1"
     inkscape:deskcolor="#505050"
     inkscape:document-units="mm"
     inkscape:zoom="0.69753788"
     inkscape:cx="512.51697"
     inkscape:cy="552.65816"
     inkscape:window-width="1920"
     inkscape:window-height="1001"
     inkscape:window-x="-9"
     inkscape:window-y="-9"
     inkscape:window-maximized="1"
     inkscape:current-layer="layer1" />
  <defs
     id="defs1">
    <linearGradient
       id="linearGradient47"
       inkscape:collect="always">
      <stop
         style="stop-color:#925600;stop-opacity:1;"
         offset="0"
         id="stop46" />
      <stop
         style="stop-color:#d8a044;stop-opacity:1;"
         offset="1"
         id="stop47" />
    </linearGradient>
    <linearGradient
       id="linearGradient26"
       inkscape:collect="always">
      <stop
         style="stop-color:#d57d00;stop-opacity:1;"
         offset="0"
         id="stop26" />
      <stop
         style="stop-color:#d57d00;stop-opacity:0;"
         offset="1"
         id="stop27" />
    </linearGradient>
    <linearGradient
       inkscape:collect="always"
       xlink:href="#linearGradient47"
       id="linearGradient27"
       x1="125.60691"
       y1="77.680367"
       x2="131.19316"
       y2="77.680367"
       gradientUnits="userSpaceOnUse"
       gradientTransform="matrix(4.245685,0,0,4.245685,-409.00049,-241.11378)" />
    <linearGradient
       inkscape:collect="always"
       xlink:href="#linearGradient47"
       id="linearGradient28"
       x1="119.09448"
       y1="76.704636"
       x2="124.78121"
       y2="76.704636"
       gradientUnits="userSpaceOnUse"
       gradientTransform="matrix(4.245685,0,0,4.245685,-409.00049,-241.11378)" />
    <linearGradient
       inkscape:collect="always"
       xlink:href="#linearGradient47"
       id="linearGradient29"
       x1="107.49606"
       y1="77.492455"
       x2="118.44845"
       y2="77.492455"
       gradientUnits="userSpaceOnUse"
       gradientTransform="matrix(4.245685,0,0,4.245685,-409.00049,-241.11378)" />
    <linearGradient
       inkscape:collect="always"
       xlink:href="#linearGradient47"
       id="linearGradient30"
       x1="135.63972"
       y1="64.937576"
       x2="143.73711"
       y2="69.773781"
       gradientUnits="userSpaceOnUse"
       gradientTransform="matrix(4.245685,0,0,4.245685,-409.00049,-241.11378)" />
    <linearGradient
       inkscape:collect="always"
       xlink:href="#linearGradient47"
       id="linearGradient31"
       x1="129.47653"
       y1="64.319656"
       x2="135.92538"
       y2="64.319656"
       gradientUnits="userSpaceOnUse"
       gradientTransform="matrix(4.245685,0,0,4.245685,-406.98745,-236.6851)" />
    <linearGradient
       inkscape:collect="always"
       xlink:href="#linearGradient47"
       id="linearGradient32"
       x1="119.19844"
       y1="62.867119"
       x2="127.36507"
       y2="62.867119"
       gradientUnits="userSpaceOnUse"
       gradientTransform="matrix(4.245685,0,0,4.245685,-405.37702,-238.09423)" />
    <linearGradient
       inkscape:collect="always"
       xlink:href="#linearGradient47"
       id="linearGradient33"
       x1="110.97669"
       y1="64.866982"
       x2="117.48487"
       y2="64.866982"
       gradientUnits="userSpaceOnUse"
       gradientTransform="matrix(4.245685,0,0,4.245685,-404.16921,-242.5229)" />
    <linearGradient
       inkscape:collect="always"
       xlink:href="#linearGradient47"
       id="linearGradient34"
       x1="101.5224"
       y1="62.854702"
       x2="109.85248"
       y2="67.027115"
       gradientUnits="userSpaceOnUse"
       gradientTransform="matrix(4.245685,0,0,4.245685,-402.55875,-241.91901)" />
    <linearGradient
       inkscape:collect="always"
       xlink:href="#linearGradient26"
       id="linearGradient35"
       x1="100.13794"
       y1="89.706894"
       x2="146.79311"
       y2="89.706894"
       gradientUnits="userSpaceOnUse"
       gradientTransform="matrix(4.245685,0,0,4.245685,-409.00049,-241.11378)" />
  </defs>
  <g
     inkscape:label="Layer 1"
     inkscape:groupmode="layer"
     id="layer1">
    <circle
       style="display:none;fill:url(#linearGradient35);stroke-width:4.24569;stroke-linecap:round;paint-order:stroke fill markers"
       id="path1"
       cx="115.19522"
       cy="139.75342"
       r="99.041588" />
    <path
       style="display:inline;fill:url(#linearGradient34);fill-opacity:1;stroke:#3b270f;stroke-width:5.40645;stroke-linecap:round;stroke-opacity:1;paint-order:stroke fill markers"
       d="M 27.729014,68.137007 C 7.364674,40.423549 4.7607939,33.344327 12.033823,29.361363 c 5.917716,-3.240748 8.049009,2.949445 9.76138,5.777327 3.876014,6.40104 7.079382,11.850624 7.079382,11.850624 l 13.506842,-8.117513 c 0,0 -1.210192,-1.478261 -2.468737,-3.622139 -4.321006,-7.360769 -11.488443,-17.892013 -4.128124,-21.691858 7.507135,-3.8756195 8.76802,2.923422 14.425693,12.364347 6.067041,10.124071 18.403262,21.776901 11.679752,27.982432 -5.376014,4.961746 -9.730007,-0.191689 -13.385967,-4.516105 -3.655959,-4.324406 -2.498288,-4.120633 -2.498288,-4.120633 l -12.026582,9.011434 c 0,0 11.163773,9.693956 6.245911,16.05713 -5.233528,6.771609 -12.496071,-2.199413 -12.496071,-2.199413 z"
       id="path2"
       sodipodi:nodetypes="cssccsssssccscc" />
    <path
       id="path3"
       style="display:inline;fill:url(#linearGradient33);fill-opacity:1;stroke:#3b270f;stroke-width:4.24569;stroke-linecap:round;stroke-opacity:1;paint-order:stroke fill markers"
       d="m 80.738857,19.077006 c -0.977059,0.02046 -2.022177,0.0889 -3.141847,0.197482 -6.708652,2.898675 -11.786915,7.416429 -10.349198,17.095793 1.48238,9.979826 10.848446,11.716788 17.508272,9.425507 6.659824,-2.291282 12.10432,-8.734302 8.966972,-17.39638 -2.628165,-7.256216 -6.145036,-9.465388 -12.984199,-9.32238 z m 0.180011,9.146862 c 0.278093,-9.01e-4 0.519629,0.02335 0.706482,0.06801 0,0 4.412922,0.961309 4.697385,5.800986 -0.142238,2.953634 -2.005534,4.833689 -5.410446,5.12303 -2.557432,0.217298 -5.655254,0.03056 -5.693466,-5.408255 -0.02972,-4.328129 3.752465,-5.577459 5.700045,-5.583776 z" />
    <path
       style="display:inline;fill:url(#linearGradient32);fill-opacity:1;fill-rule:nonzero;stroke:#3b270f;stroke-width:4.24569;stroke-linecap:round;stroke-opacity:1;paint-order:stroke fill markers"
       d="m 109.1464,39.01646 c 0,0 0.33881,4.661639 -3.68309,5.035211 -3.87444,0.359908 -3.526,-4.355931 -3.92862,-10.898311 -0.34602,-5.625876 -0.60391,-14.191936 -0.80519,-16.104317 -0.20125,-1.912392 0.70453,-3.925437 2.61695,-4.026084 1.91238,-0.100671 3.42215,0.10067 3.92545,2.415646 0.50323,2.314999 0.20119,2.717606 0.20119,2.717606 0,0 1.50977,-3.422166 6.13976,-3.321514 4.63001,0.10067 6.13977,4.831289 6.13977,4.831289 0,0 3.12021,-5.133246 6.74368,-5.133246 3.62347,0 8.65609,1.40913 8.75676,8.857375 0.10075,7.448257 9.7e-4,11.705115 0.10141,14.020114 0.10075,2.314998 -0.0519,7.601108 -3.33158,7.205333 -3.28026,-0.395781 -3.58929,-1.564461 -3.6338,-6.789479 -0.0473,-5.550276 -0.14769,-7.761269 -0.005,-10.744285 0.11979,-2.52248 -1.59001,-4.505972 -3.20044,-2.895532 -1.61043,1.610426 -3.42316,3.368265 -5.53686,3.16696 -1.83938,-0.175173 -3.34354,-2.552763 -5.91515,-3.124228 -2.71758,-0.603915 -5.17998,2.736977 -4.97867,4.649356 0.2012,1.912391 0.19655,6.011997 0.19655,6.011997 z"
       id="path4"
       sodipodi:nodetypes="sssssscscsssssssssscs" />
    <path
       id="path5"
       style="display:inline;fill:url(#linearGradient31);fill-opacity:1;fill-rule:nonzero;stroke:#3b270f;stroke-width:4.24569;stroke-linecap:round;stroke-opacity:1;paint-order:stroke fill markers"
       d="m 157.7369,20.665773 c -0.71865,0.01064 -1.40238,0.09424 -2.02947,0.250114 -9.59156,2.384116 -11.97497,11.977144 -11.97497,11.977144 -1.99283,5.12436 -1.81604,14.244711 8.10253,18.49777 5.68887,2.439376 10.50462,-1.843467 11.50105,-3.266893 0.99637,-1.423436 0.64085,-4.128283 -1.49415,-4.840004 -2.13517,-0.711713 -4.65421,4.268958 -8.11347,1.709139 -3.51203,-2.598887 -4.53443,-5.909188 -3.99475,-7.609138 0.7117,-2.241905 0.48099,-1.938407 0.48099,-1.938407 0,0 5.51073,5.171814 11.34781,4.568465 4.59406,-0.474863 7.62129,-1.417135 8.54648,-8.178447 -0.62264,-7.722132 -7.34146,-11.244929 -12.37205,-11.169743 z m -1.49629,6.114112 c 1.19298,-0.417818 3.51606,0.08555 4.31077,0.533632 2.99906,1.690813 3.92016,2.769342 3.49768,4.596137 -0.3851,1.66489 -0.85217,1.925076 -2.36193,2.02574 -1.50981,0.100669 -5.67929,-1.21309 -8.69886,-4.232648 0,0 1.55247,-2.327543 3.25234,-2.922861 z"
       sodipodi:nodetypes="sscssssscscssssscss" />
    <path
       style="display:inline;fill:url(#linearGradient30);fill-opacity:1;fill-rule:nonzero;stroke:#3b270f;stroke-width:4.24569;stroke-linecap:round;stroke-opacity:1;paint-order:stroke fill markers"
       d="m 193.43144,56.405862 c 2.35251,-4.002561 3.98658,-6.873358 4.86361,-8.621175 1.27442,-2.539709 4.7336,-7.996 1.84832,-9.8369 -4.69453,-2.995296 -6.47196,5.130982 -10.02133,10.190125 -3.54943,5.059135 -5.29089,7.739524 -10.10726,4.3651 -3.80264,-2.664182 0.46058,-11.318851 1.8436,-13.128432 1.41574,-1.852304 5.67326,-7.06975 2.49804,-9.183389 -2.87084,-1.911041 -5.55747,1.608081 -8.43868,5.914521 -2.88118,4.306453 -8.36312,12.370556 -2.29875,19.638998 3.707,4.443011 10.13738,2.99357 10.13738,2.99357 0,0 -4.17057,7.684138 -6.81865,10.393935 -2.64807,2.709806 -4.26692,3.516593 -10.48537,4.214077 -6.21842,0.697509 -12.39721,-5.769889 -17.1554,-9.294416 -4.75826,-3.524523 -19.46184,-13.928885 -31.18902,-13.788133 -14.06044,0.168753 -23.851023,2.834632 -33.379698,9.374486 -2.335891,1.603178 -5.925535,5.162835 -5.08663,6.809124 2.379494,4.669374 6.205198,-0.415144 11.306686,-3.652108 6.169067,-2.73876 13.969112,-6.307353 26.267682,-6.209498 21.36751,0.169987 31.65993,23.888109 49.48374,24.00283 10.90789,0.07022 14.76084,-5.003132 17.4165,-9.025246 2.65565,-4.022123 6.4462,-9.824478 6.4462,-9.824478 z"
       id="path7"
       sodipodi:nodetypes="csssssssscssssascssscc" />
    <path
       id="path8"
       style="display:inline;fill:url(#linearGradient29);fill-opacity:1;fill-rule:nonzero;stroke:#3b270f;stroke-width:5.1861;stroke-linecap:round;stroke-opacity:1;paint-order:stroke fill markers"
       d="m 67.272309,60.415724 c -5.114142,-0.974592 -9.428819,1.982618 -11.844698,3.842409 -3.513985,2.705144 -9.417651,6.418972 -7.740013,12.638203 6.966024,18.201813 16.462052,37.778584 19.343597,38.459604 2.881591,0.68098 14.510183,0.0284 21.513864,-6.87756 7.003725,-6.9058 8.623073,-22.298042 -4.374031,-25.985831 -3.032142,-0.860323 -10.859317,0.114422 -10.859317,0.114422 0,0 1.994877,-1.690402 3.046746,-5.386585 0.888324,-3.121941 1.958237,-8.906774 -1.719587,-12.566694 -2.552507,-2.540017 -5.041922,-3.794946 -7.366561,-4.237951 z m 1.637771,9.100763 c 1.498644,1.836334 1.936076,3.369113 0.848545,6.023464 -2.263503,5.524587 -9.43056,7.671328 -9.43056,7.671328 0,0 -3.446691,-1.178643 -4.261138,-8.027345 0,0 2.132014,-4.434148 4.343165,-5.49892 4.015739,-1.933731 6.918303,-2.106586 8.499988,-0.168521 z m 16.452158,24.297785 c 0.182152,2.36327 -0.138841,4.305209 -2.475996,7.409038 -2.336911,3.10383 -9.365643,3.50813 -9.365643,3.50813 0,0 -4.188029,-1.21702 -5.211409,-9.725532 0,0 3.265528,-4.168316 5.66128,-4.806977 1.784547,-0.475716 4.076112,-1.230327 6.306458,-0.768619 2.564944,0.530955 4.907204,2.071277 5.08531,4.38396 z"
       sodipodi:nodetypes="sscsssccssssccsssccssss" />
    <path
       id="path9"
       style="display:inline;fill:url(#linearGradient28);fill-opacity:1;fill-rule:nonzero;stroke:#3b270f;stroke-width:4.24569;stroke-linecap:round;stroke-opacity:1;paint-order:stroke fill markers"
       d="m 97.490039,78.482016 c -1.571116,4.040257 -0.49059,10.971496 -0.49059,10.971496 0.347724,5.487206 3.892111,11.170568 14.679511,10.856368 6.18717,-0.18022 8.75435,-6.494181 9.05948,-8.204705 0.30526,-1.710513 -1.01124,-3.868078 -4.29754,-2.957099 -1.78386,0.494496 -1.23745,3.721075 -5.53437,3.957252 -4.12845,0.226927 -6.74193,-0.679668 -6.96751,-2.448904 -0.29763,-2.333276 -0.2369,-3.526662 -0.2369,-3.526662 0,0 7.17508,2.373606 12.21671,-0.629344 4.29399,-2.557644 6.82968,-13.462224 -1.35392,-16.890208 -2.75218,-1.152835 -4.83406,-1.095717 -9.04836,0.09125 -4.78315,2.219414 -6.116378,3.997856 -8.026511,8.780566 z m 8.033561,-1.748785 c 0.9065,-0.880925 2.785,-1.783775 4.30304,-1.809258 2.40216,-0.04034 3.91414,0.591786 4.33494,2.070926 0.35111,1.672398 0.6421,3.212102 -0.68662,3.938568 -1.32738,0.726478 -5.66264,1.288675 -9.67227,-0.180408 0,0 0.42924,-2.764666 1.72091,-4.019847 z"
       sodipodi:nodetypes="scssssscsscssscssss" />
    <path
       id="path10"
       style="display:inline;fill:url(#linearGradient27);fill-opacity:1;fill-rule:nonzero;stroke:#3b270f;stroke-width:4.24569;stroke-linecap:round;stroke-opacity:1;paint-order:stroke fill markers"
       d="m 130.02719,75.773029 c -7.05044,4.007363 -5.62136,17.664633 -5.62136,17.664633 1.0628,5.667119 6.07825,9.555798 11.87211,9.908418 4.23983,0.25804 7.67506,-1.60148 8.37322,-3.19257 0.69828,-1.591044 0.52412,-3.569909 -1.70902,-3.849475 -2.23319,-0.279494 -2.76675,1.786646 -6.967,0.850219 -4.50681,-1.004764 -5.26979,-2.031644 -5.71037,-3.75993 -0.64729,-2.539241 -0.26067,-2.498347 -0.26067,-2.498347 0,0 6.36702,2.532246 11.97274,0.796793 4.41191,-1.365874 6.39057,-2.983726 5.97295,-9.795257 -2.02312,-5.538018 -3.26423,-7.404841 -8.28184,-7.773962 -2.43091,-0.178825 -6.04768,-0.392852 -9.6409,1.649478 z m 12.49819,7.585946 c -0.0513,1.708085 -0.005,2.407347 -1.46621,2.801574 -1.46082,0.394551 -6.00823,1.030458 -10.06419,-0.231696 0,0 -0.51214,-4.12609 2.31459,-5.264917 2.437,-0.981811 3.62717,-0.875015 3.62717,-0.875015 3.35766,0.211739 5.66571,1.006125 5.58864,3.570035 z"
       sodipodi:nodetypes="scssssscscssscsssss" />
  </g>
</svg>
