<?xml version="1.0" encoding="UTF-8" standalone="no"?>
<!-- Created with Inkscape (http://www.inkscape.org/) -->

<svg
   width="173.66867mm"
   height="105.19096mm"
   viewBox="0 0 173.66867 105.19096"
   version="1.1"
   id="svg1"
   xml:space="preserve"
   inkscape:version="1.4.4 (dcaf3e7, 2026-05-05)"
   sodipodi:docname="homeybee.svg"
   xmlns:inkscape="http://www.inkscape.org/namespaces/inkscape"
   xmlns:sodipodi="http://sodipodi.sourceforge.net/DTD/sodipodi-0.dtd"
   xmlns="http://www.w3.org/2000/svg"
   xmlns:svg="http://www.w3.org/2000/svg"
   xmlns:rdf="http://www.w3.org/1999/02/22-rdf-syntax-ns#"
   xmlns:cc="http://creativecommons.org/ns#"
   xmlns:dc="http://purl.org/dc/elements/1.1/"><title
     id="title52">Homey Bee</title><sodipodi:namedview
     id="namedview1"
     pagecolor="#505050"
     bordercolor="#ffffff"
     borderopacity="1"
     inkscape:showpageshadow="0"
     inkscape:pageopacity="0"
     inkscape:pagecheckerboard="1"
     inkscape:deskcolor="#505050"
     inkscape:document-units="mm"
     inkscape:zoom="0.70710678"
     inkscape:cx="251.02291"
     inkscape:cy="627.20371"
     inkscape:window-width="1920"
     inkscape:window-height="1001"
     inkscape:window-x="-9"
     inkscape:window-y="-9"
     inkscape:window-maximized="1"
     inkscape:current-layer="layer7"><inkscape:page
       x="0"
       y="0"
       width="173.66867"
       height="105.19096"
       id="page2"
       margin="0"
       bleed="0" /></sodipodi:namedview><defs
     id="defs1"><linearGradient
       id="swatch28"
       inkscape:swatch="solid"><stop
         style="stop-color:#000000;stop-opacity:1;"
         offset="0"
         id="stop28" /></linearGradient><inkscape:path-effect
       effect="mirror_symmetry"
       start_point="104.99999,51.167555"
       end_point="104.99999,156.35852"
       center_point="104.99999,103.76304"
       id="path-effect5"
       is_visible="true"
       lpeversion="1.2"
       lpesatellites=""
       mode="vertical"
       discard_orig_path="false"
       fuse_paths="true"
       oposite_fuse="false"
       split_items="false"
       split_open="false"
       link_styles="false" /></defs><g
     inkscape:groupmode="layer"
     id="layer2"
     inkscape:label="BodyBG"
     style="display:inline;fill:#2c140c;fill-opacity:1;stroke:none;stroke-linecap:round;stroke-linejoin:round;stroke-opacity:1;paint-order:normal"
     inkscape:path-effect="#path-effect5"
     transform="translate(-18.165658,-51.167555)"><path
       style="display:inline;fill:#aadedb;fill-opacity:0.810458;stroke:none;stroke-width:4.79999;stroke-linecap:round;stroke-linejoin:round;stroke-opacity:1;paint-order:fill markers stroke"
       d="m 77.350715,67.042554 c -31.331612,13.750731 -32.32883,27.887778 -38.337166,58.967386 -6.008338,31.07961 -11.852057,30.34708 -11.852057,30.34708 0,0 6.972515,-4.62033 9.809691,-8.59471 2.837178,-3.97437 5.130048,-12.93853 7.409859,-23.81211 C 46.080369,115.84525 50.38243,90.874792 60.96757,82.900103 71.552711,74.925416 77.350715,67.042554 77.350715,67.042554 Z m 55.298545,0 c 31.33162,13.750731 32.32883,27.887778 38.33717,58.967386 6.00834,31.07961 11.85206,30.34708 11.85206,30.34708 0,0 -6.97252,-4.62033 -9.80969,-8.59471 -2.83718,-3.97437 -5.13005,-12.93853 -7.40986,-23.81211 -1.69933,-8.10495 -6.00139,-33.075408 -16.58653,-41.050097 -10.58514,-7.974687 -16.38315,-15.857549 -16.38315,-15.857549 z"
       id="path5"
       sodipodi:nodetypes="cscsssc"
       inkscape:original-d="m 77.350715,67.042554 c -31.331612,13.750731 -32.32883,27.887778 -38.337166,58.967386 -6.008338,31.07961 -11.852057,30.34708 -11.852057,30.34708 0,0 6.972515,-4.62033 9.809691,-8.59471 2.837178,-3.97437 5.130048,-12.93853 7.409859,-23.81211 C 46.080369,115.84525 50.38243,90.874792 60.96757,82.900103 71.552711,74.925416 77.350715,67.042554 77.350715,67.042554 Z" /><path
       style="display:inline;fill:#aadedb;fill-opacity:0.810458;stroke:none;stroke-width:4.79999;stroke-linecap:round;stroke-linejoin:round;stroke-opacity:1;paint-order:fill markers stroke"
       d="M 68.354882,51.167554 C 37.02327,64.918285 36.026052,79.055332 30.017716,110.13494 c -6.008338,31.07961 -11.852057,30.34708 -11.852057,30.34708 0,0 6.972515,-4.62033 9.809691,-8.59471 2.837178,-3.97437 5.130048,-12.93853 7.409859,-23.81211 1.699327,-8.10495 6.001388,-33.075408 16.586528,-41.050097 10.585141,-7.974687 16.383145,-15.857549 16.383145,-15.857549 z m 73.290218,0 c 31.33161,13.750731 32.32883,27.887778 38.33716,58.967386 6.00834,31.07961 11.85206,30.34708 11.85206,30.34708 0,0 -6.97251,-4.62033 -9.80969,-8.59471 -2.83718,-3.97437 -5.13005,-12.93853 -7.40986,-23.81211 C 172.91544,99.97025 168.61338,74.999792 158.02824,67.025103 147.4431,59.050416 141.6451,51.167554 141.6451,51.167554 Z"
       id="path24"
       sodipodi:nodetypes="cscsssc"
       inkscape:original-d="M 68.354882,51.167554 C 37.02327,64.918285 36.026052,79.055332 30.017716,110.13494 c -6.008338,31.07961 -11.852057,30.34708 -11.852057,30.34708 0,0 6.972515,-4.62033 9.809691,-8.59471 2.837178,-3.97437 5.130048,-12.93853 7.409859,-23.81211 1.699327,-8.10495 6.001388,-33.075408 16.586528,-41.050097 10.585141,-7.974687 16.383145,-15.857549 16.383145,-15.857549 z" /></g><metadata
     id="metadata52"><rdf:RDF><cc:Work
         rdf:about=""><dc:title>Homey Bee</dc:title></cc:Work></rdf:RDF></metadata></svg>
